HIERARCHY
ROOT root     
{
	OFFSET 0.0000 0.0000 0.0000
	CHANNELS 6 Xposition Yposition Zposition Zrotation Yrotation Xrotation
	JOINT pelvis   
	{
		OFFSET 0.0000 0.0000 0.0000
		CHANNELS 3 Zrotation Yrotation Xrotation
		JOINT thorax   
		{
			OFFSET 0.0000 23.0750 -5.0000
			CHANNELS 3 Zrotation Yrotation Xrotation
			JOINT rclavicle
			{
				OFFSET 0.0000 28.0009 0.0000
				CHANNELS 3 Zrotation Yrotation Xrotation
				JOINT rhumerus 
				{
					OFFSET -18.5725 5.5939 0.0000
					CHANNELS 3 Zrotation Yrotation Xrotation
					JOINT rradius  
					{
						OFFSET -24.8459 0.0000 0.0000
						CHANNELS 3 Zrotation Yrotation Xrotation
						JOINT rhand    
						{
							OFFSET -24.5477 0.0000 0.0000
							CHANNELS 3 Zrotation Yrotation Xrotation
							End Site
							{
								OFFSET -8.1826 0.0000 0.0000
							}
						}
					}
				}
			}
			JOINT lclavicle
			{
				OFFSET 0.0000 28.0009 0.0000
				CHANNELS 3 Zrotation Yrotation Xrotation
				JOINT lhumerus 
				{
					OFFSET 18.5725 5.5939 0.0000
					CHANNELS 3 Zrotation Yrotation Xrotation
					JOINT lradius  
					{
						OFFSET 24.8459 0.0000 0.0000
						CHANNELS 3 Zrotation Yrotation Xrotation
						JOINT lhand    
						{
							OFFSET 24.5477 0.0000 0.0000
							CHANNELS 3 Zrotation Yrotation Xrotation
							End Site
							{
								OFFSET 8.1826 0.0000 0.0000
							}
						}
					}
				}
			}
			JOINT head     
			{
				OFFSET 0.0000 35.2030 0.0000
				CHANNELS 3 Zrotation Yrotation Xrotation
				End Site
				{
					OFFSET 0.0000 11.7343 0.0000
				}
			}
		}
		JOINT rfemur   
		{
			OFFSET -8.2817 0.0000 0.0000
			CHANNELS 3 Zrotation Yrotation Xrotation
			JOINT rtibia   
			{
				OFFSET 0.0000 -43.3627 0.0000
				CHANNELS 3 Zrotation Yrotation Xrotation
				JOINT rfoot    
				{
					OFFSET 0.0000 -38.2947 0.0000
					CHANNELS 3 Zrotation Yrotation Xrotation
					JOINT rtoes    
					{
						OFFSET 0.0000 0.0000 16.6054
						CHANNELS 3 Zrotation Yrotation Xrotation
						End Site
						{
							OFFSET 0.0000 0.0000 5.5351
						}
					}
				}
			}
		}
		JOINT lfemur   
		{
			OFFSET 8.2817 0.0000 0.0000
			CHANNELS 3 Zrotation Yrotation Xrotation
			JOINT ltibia   
			{
				OFFSET 0.0000 -43.3627 0.0000
				CHANNELS 3 Zrotation Yrotation Xrotation
				JOINT lfoot    
				{
					OFFSET 0.0000 -38.2947 0.0000
					CHANNELS 3 Zrotation Yrotation Xrotation
					JOINT ltoes    
					{
						OFFSET 0.0000 0.0000 16.6054
						CHANNELS 3 Zrotation Yrotation Xrotation
						End Site
						{
							OFFSET 0.0000 0.0000 5.5351
						}
					}
				}
			}
		}
	}
}
MOTION
Frames: 23
Frame Time: .0333333
-10.736 81.826 -11.784 38.7628 75.6081 55.1744 0 -0 0 3.20354 -16.1595 -14.5594 22.3013 -16.3154 0.000177022 32.2766 -2.66399 18.14 -180 83.9433 -180 15.4444 -4.25265 -0.576913 -22.6861 13.3527 -6.81184e-05 -27.8238 -0.202273 26.1411 180 -76.5762 -180 -0.412707 -0.260797 0.000900002 -11.0127 1.46416 -5.67731 3.04831 4.92333 -42.4259 -0 -0 24.9429 3.82308e-06 -4.74768 7.23443 179.401 -5.21621e-07 -7.43332 2.4554 14.401 1.14541 -0 -0 32.501 -1.39921e-05 -2.99502 25.6233 -1.2961 9.17764e-07 -76.8615 
-9.6832 81.376 -11.232 37.0601 75.1768 53.5297 0 -0 0 3.39736 -15.8723 -14.8902 23.2205 -15.8835 8.50894e-05 33.568 -3.32208 15.2792 -180 84.1935 -180 14.4127 -3.37633 -0.426986 -23.3392 13.5202 -4.85719e-05 -28.0766 -0.159432 25.0598 180 -76.8054 -180 -0.296409 -0.246004 0.000600035 -10.5184 0.610007 -5.28559 2.492 7.09997 -43.6104 -0 -0 28.6139 2.94385e-06 -5.40936 5.91473 179.441 7.42725e-07 -13.1683 2.98666 13.7262 0.461882 -0 -0 35.0778 -1.72771e-05 -4.40447 26.3006 -1.95457 -1.56796e-05 -75.0073 
-8.6617 80.987 -10.635 35.5551 74.8439 52.0178 0 -0 0 3.55809 -15.7361 -15.0965 24.1758 -15.4502 0.00021365 35.3679 -3.82763 12.1547 -180 84.7378 -180 13.1619 -2.27575 -0.262599 -23.9417 13.6709 -9.71765e-06 -28.6681 -0.076705 23.8238 180 -77.2455 -180 -0.0689991 -0.2703 0.000199995 -9.8714 -0.336702 -4.90184 2.1026 9.12455 -44.4526 -0 -0 31.7455 2.41158e-06 -6.23923 4.65561 179.492 1.00917e-06 -16.6354 3.61457 12.9468 -0.312198 -0 -0 37.7232 -1.52733e-06 -5.79735 26.8923 -2.62938 -2.37021e-05 -72.3472 
-7.6763 80.669 -10.002 34.3247 74.6105 50.7302 0 -0 0 3.67116 -15.7726 -15.2112 25.1445 -15.0396 8.80194e-05 37.6698 -4.12059 8.81345 -180 85.5583 -180 11.7734 -1.0171 -0.104903 -24.4786 13.804 -9.81928e-05 -29.6129 0.0569219 22.4301 180 -77.9042 -180 0.266901 -0.352895 -0.000800004 -9.09431 -1.3616 -4.51718 1.89647 10.9063 -44.9461 -0 -0 34.2956 -1.55459e-06 -7.17268 3.3566 179.578 4.53989e-07 -18.7923 4.29595 12.0587 -1.19584 -0 -0 40.3942 -4.17612e-05 -7.05109 27.3373 -3.25108 4.13332e-06 -69.0516 
-6.7294 80.425 -9.3468 33.4292 74.4649 49.7383 0 -0 0 3.71591 -15.9916 -15.264 26.1115 -14.6687 -0.000133299 40.4186 -4.16769 5.33279 -180 86.5733 -180 10.2829 0.317795 0.0285999 -24.9373 13.9013 -8.47255e-05 -30.9218 0.273849 20.8662 180 -78.7607 -180 0.702807 -0.504905 -0.00310003 -8.21391 -2.4485 -4.12044 1.86013 12.3848 -45.0986 -0 -0 36.2589 5.01784e-06 -8.1448 1.98408 179.716 4.90349e-07 -20.2469 4.98424 11.0707 -2.20342 -0 -0 43.0615 -9.2924e-05 -8.05231 27.5831 -3.74785 4.40971e-05 -65.1619 
-5.8206 80.257 -8.6784 32.8962 74.3935 49.0798 0 -0 0 3.68585 -16.3929 -15.2765 27.0686 -14.3784 4.19498e-05 43.4967 -3.92003 1.85469 -180 87.7104 -180 8.63523 1.65029 0.1246 -25.3078 13.987 -2.19182e-05 -32.5873 0.542162 19.1301 180 -79.7874 -180 1.23403 -0.727102 -0.00780023 -7.26214 -3.5785 -3.70852 1.96972 13.5349 -44.9285 -0 -0 37.6446 2.7736e-08 -9.08962 0.573911 179.908 2.034e-07 -21.1453 5.64527 10.0033 -3.33327 -0 -0 45.6716 -2.43434e-06 -8.69075 27.6509 -4.05769 -1.7497e-05 -61.5221 
-4.9482 80.163 -8.0078 32.7391 74.3704 48.7771 0 -0 0 3.56713 -16.9558 -15.2668 28.0149 -14.1779 8.35841e-05 46.7637 -3.4097 -1.46479 -180 88.8562 -180 6.69891 2.91054 0.170403 -25.5836 14.0433 -0.000117642 -34.591 0.89278 17.2036 180 -80.9381 -180 1.85565 -1.0072 -0.0162995 -6.26771 -4.73624 -3.27537 2.19107 14.3419 -44.4666 -0 -0 38.4882 1.0019e-06 -9.92756 -0.827813 -179.855 4.80826e-07 -21.7424 6.24546 8.88325 -4.57951 -0 -0 48.1959 1.6209e-05 -8.89823 27.5329 -4.13951 -8.61041e-06 -58.1296 
-4.109 80.137 -7.3417 32.9082 74.3755 48.7867 0 -0 0 3.36587 -17.653 -15.2389 28.9438 -14.0784 -4.09891e-05 50.0585 -2.68661 -4.43649 -179.998 90 -179.998 4.26771 4.05182 0.151002 -25.7695 14.0685 -0.000119488 -36.9017 1.32174 15.0831 180 -82.165 -180 2.57618 -1.32357 -0.0297992 -5.2572 -5.90665 -2.82387 2.49521 14.825 -43.75 -0 -0 38.8352 -4.81812e-07 -10.5834 -2.14033 -179.6 1.9971e-06 -22.0933 6.77211 7.74858 -5.92427 -0 -0 50.6005 2.94761e-05 -8.63504 27.2445 -3.97698 -1.99458e-05 -55.1426 
-3.2998 80.174 -6.6842 33.3077 74.3787 49.0212 0 -0 0 3.09584 -18.4392 -15.1953 29.8451 -14.0777 -1.83426e-05 53.2256 -1.82793 -6.87414 -0 89.0006 -0 1.11749 5.0408 0.0491991 -25.8799 14.0883 5.84461e-05 -39.4636 1.78369 12.7885 180 -83.4026 -180 3.41996 -1.64634 -0.0491994 -4.25081 -7.07737 -2.36416 2.85855 15.0183 -42.8228 -0 -0 38.7462 2.98155e-06 -10.9908 -3.27756 -179.364 3.58855e-06 -22.2457 7.22007 6.63726 -7.34045 -0 -0 52.8422 4.58386e-05 -7.88623 26.8328 -3.5778 7.97133e-05 -52.9324 
-2.518 80.268 -6.0375 33.8028 74.3539 49.3532 0 -0 0 2.77414 -19.2621 -15.1309 30.6898 -14.155 -3.96143e-05 56.139 -0.937828 -8.63796 -7.4065e-06 88.1137 -7.16779e-06 -2.90888 5.84219 -0.148498 -25.9339 14.1124 5.23318e-05 -42.2055 2.25723 10.3533 180 -84.605 180 4.42237 -1.94475 -0.0751034 -3.26064 -8.2397 -1.90977 3.25838 14.9794 -41.7315 -0 -0 38.2938 3.42464e-06 -11.1019 -4.16618 -179.183 7.36354e-06 -22.2927 7.59247 5.59259 -8.80075 -0 -0 54.8913 -7.02881e-05 -6.6741 26.3097 -2.96896 3.28076e-05 -51.3291 
-1.762 80.41 -5.4013 34.2287 74.27 49.6285 0 -0 0 2.42395 -20.0632 -15.0448 31.4367 -14.2829 -3.9333e-05 58.7144 -0.101297 -9.6458 3.92179e-06 87.3638 4.10668e-06 -7.82069 6.40143 -0.43801 -25.9585 14.1427 -2.30957e-05 -45.0366 2.73061 7.82651 180 -85.6859 -180 5.62509 -2.18997 -0.107601 -2.29177 -9.38777 -1.4788 3.67732 14.779 -40.5282 -0 -0 37.5534 5.75383e-06 -10.8997 -4.75128 -179.086 4.09997e-06 -22.3351 7.89632 4.65485 -10.2755 -0 -0 56.7176 6.98949e-06 -5.04829 25.6911 -2.19317 7.2643e-06 -50.1656 
-1.0314 80.596 -4.7735 34.4091 74.0971 49.6809 0 -0 0 2.06972 -20.7838 -14.9337 32.0493 -14.4274 1.65956e-05 60.8818 0.617416 -9.88376 3.50333e-07 86.6778 9.53092e-07 -13.4408 6.64513 -0.783913 -25.9793 14.1953 -0.00016103 -47.8599 3.17368 5.28923 180 -86.6298 -180 7.06561 -2.36222 -0.145899 -1.34242 -10.5187 -1.09287 4.09965 14.5053 -39.2631 -0 -0 36.5993 2.03073e-06 -10.4013 -5.0048 -179.083 1.34863e-06 -22.4706 8.14335 3.85694 -11.7374 -0 -0 58.2948 1.7035e-05 -3.08494 24.999 -1.30473 -2.79374e-05 -49.2606 
-0.327 80.819 -4.1514 34.1994 73.8043 49.3784 0 -0 0 1.73132 -21.3704 -14.7953 32.4902 -14.5637 -0.000117602 62.6014 1.19047 -9.38889 3.62289e-06 86.0019 3.88449e-06 -19.4145 6.50366 -1.11368 -26.0168 14.2712 4.31213e-05 -50.5795 3.58367 2.82687 180 -87.4054 -180 8.76025 -2.44962 -0.187703 -0.405293 -11.6323 -0.7732 4.51111 14.2491 -37.9766 -0 -0 35.5011 3.86169e-06 -9.65483 -4.92663 -179.163 -4.28217e-06 -22.7623 8.34242 3.21905 -13.1623 -0 -0 59.6016 -2.02887e-06 -0.880493 24.2561 -0.361708 2.50669e-06 -48.4397 
0.3503 81.075 -3.5319 33.4988 73.364 48.6272 0 -0 0 1.42011 -21.7728 -14.6273 32.7416 -14.6562 0.000155548 63.8409 1.60012 -8.23598 -0 85.3265 -0 -25.31 5.93823 -1.33453 -26.0827 14.3762 6.31466e-05 -53.1057 3.95556 0.534062 180 -88.0084 180 10.6914 -2.44807 -0.229093 0.53079 -12.7299 -0.538891 4.90039 14.0985 -36.6999 -0 -0 34.3093 2.60328e-06 -8.72966 -4.54034 -179.304 -2.8303e-06 -23.2169 8.50224 2.75064 -14.5302 -0 -0 60.6308 6.45628e-06 1.45071 23.4653 0.577692 -6.97863e-07 -47.2893 
0.9995 81.361 -2.9134 32.2943 72.7479 47.4202 0 -0 0 1.1348 -21.9588 -14.4293 32.8022 -14.7079 1.30367e-05 64.5914 1.88322 -6.48269 3.03687e-06 84.5659 3.3391e-06 -30.6934 4.95808 -1.36148 -26.1794 14.493 6.96076e-05 -55.3652 4.32148 -1.5192 180 -88.4322 -180 12.8002 -2.35436 -0.264093 1.47764 -13.8149 -0.403892 5.25508 14.1188 -35.4499 -0 -0 33.0677 9.8381e-07 -7.70325 -3.88956 -179.474 1.49502e-06 -23.8045 8.62138 2.4383 -15.8247 -0 -0 61.3714 4.63922e-06 3.80332 22.6706 1.46764 -2.12212e-05 -45.8889 
1.6213 81.674 -2.2958 30.648 71.9341 45.8153 0 -0 0 0.860088 -21.908 -14.1977 32.6917 -14.7182 5.60538e-05 64.853 2.0857 -4.18767 2.61613e-06 83.7481 2.91843e-06 -35.212 3.62604 -1.151 -26.3003 14.6068 -0.000142314 -57.2995 4.70677 -3.27481 180 -88.7398 -180 14.9913 -2.16331 -0.284703 2.44538 -14.8908 -0.376385 5.56589 14.3475 -34.2314 -0 -0 31.7974 -2.18977e-06 -6.64698 -3.03008 -179.647 -7.3263e-07 -24.4769 8.69327 2.25542 -17.0301 -0 -0 61.8255 2.96517e-05 6.08012 21.8985 2.27501 6.96923e-06 -44.1892 
2.2181 82.012 -1.6794 28.6958 70.8911 43.9418 0 -0 0 0.571595 -21.6175 -13.9227 32.4462 -14.6849 6.09653e-05 64.6412 2.25548 -1.42736 -2.57534e-06 82.8609 -2.2729e-06 -38.5739 2.06385 -0.722284 -26.4306 14.7068 3.13481e-05 -58.8705 5.12854 -4.69075 180 -88.9086 -180 17.1416 -1.86701 -0.281411 3.4383 -15.9585 -0.457112 5.82581 14.7956 -33.0316 -0 -0 30.5061 -2.45483e-06 -5.61763 -2.01879 -179.802 -6.58787e-07 -25.1646 8.70911 2.16603 -18.1327 -0 -0 61.9973 2.23432e-05 8.19941 21.1577 2.9772 1.25697e-05 -42.0947 
2.7944 82.374 -1.0666 26.6061 69.6132 41.9524 0 -0 0 0.237268 -21.0992 -13.5995 32.1113 -14.6194 -7.20704e-05 63.9995 2.45455 1.70969 1.99591e-06 81.9353 2.29853e-06 -40.5506 0.4584 -0.169304 -26.5572 14.7831 -0.000141642 -60.0526 5.60619 -5.7507 180 -89.0062 180 19.1128 -1.45732 -0.245304 4.4518 -17.014 -0.639396 6.02951 15.4359 -31.8299 -0 -0 29.1934 -3.79624e-07 -4.64744 -0.911293 -179.926 -1.13629e-07 -25.8249 8.65252 2.12255 -19.1194 -0 -0 61.8971 -2.62156e-05 10.1111 20.4684 3.56831 5.76946e-05 -39.7988 
3.3559 82.757 -0.4614 24.5612 68.0952 40.014 0 -0 0 -0.177536 -20.3811 -13.2264 31.73 -14.5418 0.000129281 62.9853 2.75093 5.12154 7.02596e-07 80.995 1.28753e-06 -40.9692 -0.942695 0.352201 -26.6698 14.8163 6.45613e-05 -60.8347 6.16148 -6.4659 180 -89.0838 -180 20.7663 -0.932598 -0.170907 5.47155 -18.0516 -0.909416 6.16953 16.2078 -30.6088 -0 -0 27.8557 -4.95853e-08 -3.73912 0.238497 179.984 3.87961e-08 -26.5047 8.50139 2.0706 -19.9846 -0 -0 61.5328 0.000114136 11.7924 19.8446 4.0536 2.55264e-05 -37.5641 
3.91 83.158 0.1341 22.6866 66.3527 38.2304 0 -0 0 -0.695451 -19.4961 -12.8012 31.3364 -14.4306 0.000147042 61.6833 3.14465 8.63058 1.12647e-06 80.0732 1.34072e-06 -39.7187 -1.84869 0.667808 -26.7606 14.8202 -5.79341e-05 -61.2249 6.77626 -6.84546 180 -89.1058 -180 21.9713 -0.310704 -0.0603024 6.47152 -19.0604 -1.24879 6.24864 17.0447 -29.3404 -0 -0 26.4856 1.32652e-06 -2.87837 1.40136 179.929 9.54319e-08 -27.1467 8.24622 1.96863 -20.7239 -0 -0 60.9187 -8.1117e-05 13.2272 19.2586 4.43324 -3.8599e-05 -35.414 
4.463 83.575 0.7169 21.0739 64.4171 36.6797 0 -0 0 -1.33087 -18.486 -12.3329 30.9519 -14.2983 9.36399e-05 60.1917 3.6724 12.1031 -0 79.1626 -0 -36.826 -1.98101 0.659501 -26.8311 14.7891 -1.92002e-05 -61.2343 7.45251 -6.93196 180 -89.1801 -180 22.6162 0.371 0.0742001 7.41736 -20.0262 -1.63495 6.2659 17.8613 -28.0155 -0 -0 25.0812 2.88489e-07 -2.02659 2.54875 179.91 4.17778e-07 -27.85 7.87598 1.77549 -21.3426 -0 -0 60.07 1.46657e-05 14.4225 18.7011 4.71384 -6.05559e-05 -33.545 
5.0209 84.001 1.2868 19.7528 62.3146 35.3809 0 -0 0 -2.08186 -17.3885 -11.8342 30.578 -14.1274 4.43148e-05 58.6138 4.3254 15.3946 1.87491e-06 78.2714 2.30406e-06 -32.4815 -1.15974 0.337813 -26.8841 14.7385 -0.000143428 -60.8989 8.16683 -6.76928 180 -89.205 -180 22.6219 1.0483 0.2097 8.27025 -20.9325 -2.04545 6.22731 18.5824 -26.6254 -0 -0 23.6475 -2.6393e-07 -1.13721 3.67367 179.927 -4.81972e-08 -28.6176 7.39366 1.46888 -21.8519 -0 -0 59.0017 5.80704e-05 15.3847 18.1397 4.89613 -1.30497e-05 -31.973 
5.5874 84.431 1.8447 18.7121 60.0862 34.3187 0 -0 0 -2.93267 -16.2408 -11.3198 30.2066 -13.9103 3.03166e-05 57.0462 5.10277 18.4299 -0 77.3906 -0 -27.0696 0.581006 -0.139901 -26.927 14.6817 -8.12384e-05 -60.2623 8.89733 -6.41195 180 -89.2361 -180 21.9511 1.63844 0.317787 8.99045 -21.7635 -2.45941 6.14032 19.1457 -25.1789 -0 -0 22.1952 -1.44476e-07 -0.160304 4.77768 179.987 -1.1387e-07 -29.477 6.81379 1.04079 -22.2665 -0 -0 57.732 -7.30049e-05 16.1213 17.5492 4.98076 5.01739e-05 -30.7132 
